# xmcd CD database file
#
# Track frame offsets:
#	182
#	14187
#	29030
#	41757
#	56447
#	71797
#	86897
#	100622
#	115745
#	129205
#	149400
#	164480
#	183760
#	204447
#	217512
#
# Disc length: 3051 seconds
#
# Revision: 0
# Processed by: cddbd v1.4PL0 Copyright (c) Steve Scherf et al.
# Submitted via: CDex 1.50beta10
#
DISCID=d40be90f
DTITLE=Louis Armstrong - Two Facets Of Louis
DYEAR=1900
DGENRE=Blues
TTITLE0=Fireworks
TTITLE1=West End Blues
TTITLE2=Don't Jive Me
TTITLE3=Basin Street Blues
TTITLE4=Knee Drops
TTITLE5=St James Infirmary
TTITLE6=Struttin' With Some Barbecue
TTITLE7=Sugar Foot Strut
TTITLE8=Honeysuckle Rose
TTITLE9=I'm Crazy 'Bout My Baby and My Baby's Crazy 'Bout Me
TTITLE10=Keepin' Out Of Mischief Now
TTITLE11=Long Gone (From Bowlin' Green)
TTITLE12=Atlanta Blues (Make Me One Pallet On Your Floor)
TTITLE13=Nomad
TTITLE14=Since Love Had Its Way
EXTD=
EXTT0=
EXTT1=
EXTT2=
EXTT3=
EXTT4=
EXTT5=
EXTT6=
EXTT7=
EXTT8=
EXTT9=
EXTT10=
EXTT11=
EXTT12=
EXTT13=
EXTT14=
PLAYORDER=
